<svg xmlns="http://www.w3.org/2000/svg" viewBox="0 0 100 100">
  <rect width="100" height="100" rx="20" fill="#D9A526"/>
  <g fill="#2E2116" transform="translate(17 17) scale(0.66)">
    <rect x="43.25" y="9.25" width="13.50" height="13.50" rx="0.81"/>
    <rect x="60.25" y="13.81" width="13.50" height="13.50" rx="2.16"/>
    <rect x="72.69" y="26.25" width="13.50" height="13.50" rx="4.05"/>
    <rect x="77.25" y="43.25" width="13.50" height="13.50" rx="5.94"/>
    <rect x="72.69" y="60.25" width="13.50" height="13.50" rx="6.75"/>
    <rect x="60.25" y="72.69" width="13.50" height="13.50" rx="6.75"/>
    <rect x="43.25" y="77.25" width="13.50" height="13.50" rx="6.75"/>
    <rect x="26.25" y="72.69" width="13.50" height="13.50" rx="6.75"/>
    <rect x="13.81" y="60.25" width="13.50" height="13.50" rx="5.94"/>
    <rect x="9.25" y="43.25" width="13.50" height="13.50" rx="4.05"/>
    <rect x="13.81" y="26.25" width="13.50" height="13.50" rx="2.16"/>
    <rect x="26.25" y="13.81" width="13.50" height="13.50" rx="1.08"/>
  </g>
</svg>
